<svg xmlns="http://www.w3.org/2000/svg" viewBox="0 0 160 160">
              <defs>
                <linearGradient
                  x1="50%"
                  x2="50%"
                  y2="100%"
                  id="van-empty-8"
                >
                  <stop
                    stop-color="#EAEDF1"
                    offset="0%"
                  />
                  <stop
                    stop-color="#DCDEE0"
                    offset="100%"
                  />
                </linearGradient>
              </defs>
              <defs>
                <linearGradient
                  id="van-empty-a"
                  x1="64%"
                  y1="100%"
                  x2="64%"
                >
                  <stop
                    stop-color="#FFF"
                    offset="0%"
                    stop-opacity="0.5"
                  />
                  <stop
                    stop-color="#F2F3F5"
                    offset="100%"
                  />
                </linearGradient>
              </defs>
              <g
                opacity=".8"
              >
                <path
                  d="M36 131V53H16v20H2v58h34z"
                  fill="url(#van-empty-a)"
                />
                <path
                  d="M123 15h22v14h9v77h-31V15z"
                  fill="url(#van-empty-a)"
                />
              </g>
              <defs>
                <linearGradient
                  id="van-empty-b"
                  x1="64%"
                  y1="97%"
                  x2="64%"
                  y2="0%"
                >
                  <stop
                    stop-color="#F2F3F5"
                    offset="0%"
                    stop-opacity="0.3"
                  />
                  <stop
                    stop-color="#F2F3F5"
                    offset="100%"
                  />
                </linearGradient>
              </defs>
              <g
                opacity=".8"
              >
                <path
                  d="M87 6c3 0 7 3 8 6a8 8 0 1 1-1 16H80a7 7 0 0 1-8-6c0-4 3-7 6-7 0-5 4-9 9-9Z"
                  fill="url(#van-empty-b)"
                />
                <path
                  d="M19 23c2 0 3 1 4 3 2 0 4 2 4 4a4 4 0 0 1-4 3v1h-7v-1l-1 1c-2 0-3-2-3-4 0-1 1-3 3-3 0-2 2-4 4-4Z"
                  fill="url(#van-empty-b)"
                />
              </g>
              <defs>
                <radialGradient
                  id="van-empty-c"
                  cx="50%"
                  cy="54%"
                  fx="50%"
                  fy="54%"
                  r="297%"
                  gradientTransform="matrix(-.16 0 0 -.33 .58 .72)"
                >
                  <stop
                    stop-color="#EBEDF0"
                    offset="0%"
                  />
                  <stop
                    stop-color="#F2F3F5"
                    offset="100%"
                    stop-opacity="0.3"
                  />
                </radialGradient>
              </defs>
              <ellipse
                fill="url(#van-empty-c)"
                opacity=".8"
                cx="80"
                cy="140"
                rx="46"
                ry="8"
              />
              <path
                d="m59 60 21 21 21-21h3l9 9v3L92 93l21 21v3l-9 9h-3l-21-21-21 21h-3l-9-9v-3l21-21-21-21v-3l9-9h3Z"
                fill="url(#van-empty-8)"
              />
            </svg>